<?xml version="1.0" encoding="utf-8"?>
<!-- Generator: Adobe Illustrator 23.0.0, SVG Export Plug-In . SVG Version: 6.00 Build 0)  -->
<svg version="1.1" id="Layer_1" xmlns="http://www.w3.org/2000/svg" xmlns:xlink="http://www.w3.org/1999/xlink" x="0px" y="0px"
	 viewBox="0 0 200 200" style="enable-background:new 0 0 200 200;" xml:space="preserve">
<style type="text/css">
	.st0{fill:#F4C66E;}
	.st1{fill:#FBDF95;}
	.st2{fill:#FFFFFF;}
	.st3{fill:#191819;}
	.st4{fill:url(#XMLID_2_);}
	.st5{fill:url(#XMLID_3_);}
	.st6{fill:#1D120A;}
	.st7{fill:url(#XMLID_4_);}
	.st8{fill:url(#XMLID_5_);}
</style>
<g id="Page-1" transform="translate(0.001 -0.5)">
	<g id="Group-2" transform="translate(-0.001 0.5)">
		<g id="star" transform="translate(0 0)">
			<g id="Group" transform="translate(2.898 2.896)">
				<path id="Shape" class="st0" d="M-147.1-274.6l20.6-34.3l20.6,34.3l38.9,9l-26.2,30.2l3.4,39.8l-36.8-15.6l-36.8,15.6l3.4-39.8
					l-26.2-30.2L-147.1-274.6z M-57-262.8c2.4-2.6,2.3-6.6-0.2-9.1c-0.8-0.8-1.9-1.3-3-1.6l-39.7-9.2l-21-34.8
					c-1.8-3.1-5.7-4.1-8.8-2.3c-0.9,0.5-1.7,1.3-2.3,2.2l-21.1,34.9l-39.7,9.2c-3.5,0.8-5.6,4.3-4.8,7.7c0.2,1,0.7,1.9,1.4,2.7
					l26.7,30.8l-3.5,40.7c-0.3,3.5,2.4,6.6,5.9,6.9c1,0.1,2-0.1,3-0.5l37.6-15.9l37.1,15.7c3.1,1.7,7,0.5,8.7-2.7
					c0.6-1.1,0.8-2.3,0.7-3.5l-3.5-40.7L-57-262.8z"/>
				<path id="Shape-2" class="st1" d="M-126.5-308.9l-20.7,34.3l-38.9,9l26.2,30.2l-3.4,39.8l36.8-15.6l36.8,15.6l-3.4-39.8
					l26.2-30.2l-38.9-9L-126.5-308.9z"/>
				<path id="Shape-3" class="st0" d="M-126.5-222.8c12.8,0,23.2-10.4,23.2-23.2c0-12.8-10.4-23.2-23.2-23.2s-23.2,10.4-23.2,23.2
					c0,0,0,0,0,0C-149.6-233.2-139.3-222.8-126.5-222.8z"/>
			</g>
			<path id="Shape-4" d="M-61.3-263.6c-0.3-1-1.1-1.7-2.1-1.9l-37.7-8.8l-20-33.2c-0.8-1.4-2.6-1.8-4-1c-0.4,0.2-0.7,0.6-1,1
				l-20,33.2l-37.7,8.8c-1.6,0.4-2.5,1.9-2.2,3.5c0.1,0.5,0.3,0.9,0.6,1.2l25.4,29.3l-3.3,38.6c-0.1,1.6,1.1,3,2.6,3.1
				c0.5,0,0.9,0,1.4-0.2l35.7-15.1l35.7,15.1c1.5,0.6,3.2-0.1,3.8-1.5c0.2-0.4,0.3-0.9,0.2-1.4l-0.9-11c-0.1-1.6-1.4-2.9-3-2.8
				c-1.6,0.1-2.9,1.4-2.8,3c0,0.1,0,0.2,0,0.3l0.5,6.2l-32.4-13.7c-0.7-0.3-1.5-0.3-2.3,0l-32.4,13.7l3-35.1
				c0.1-0.8-0.2-1.6-0.7-2.1l-23-26.6l34.2-8c0.8-0.2,1.4-0.7,1.8-1.3l18.2-30.1l18.2,30.1c0.4,0.7,1.1,1.1,1.8,1.3l34.2,8l-23,26.6
				c-0.5,0.6-0.8,1.4-0.7,2.1l0.8,9c0.1,1.6,1.4,2.9,3,2.8c1.6-0.1,2.9-1.4,2.8-3c0-0.1,0-0.2,0-0.3l-0.7-7.7l25.4-29.3
				C-61.2-261.5-60.9-262.6-61.3-263.6z"/>
			<path id="Shape-5" d="M-89-218.1c-1.6,0.2-2.7,1.6-2.6,3.2c0.2,1.4,1.4,2.5,2.8,2.6c0.1,0,0.2,0,0.3,0c1.6-0.2,2.8-1.6,2.6-3.2
				c0,0,0,0,0,0v0C-86-217.1-87.4-218.3-89-218.1C-89-218.1-89-218.1-89-218.1z"/>
			<path id="Shape-6" d="M-49.9-267.1c-1-3.2-3.6-5.6-6.8-6.3l-38.5-8.9l-20.4-33.8c-1.7-2.9-4.7-4.6-8-4.6h-0.1
				c-3.3,0-6.3,1.7-8,4.5l-20.4,33.9l-10.3,2.4c-1.5,0.4-2.4,2-2,3.6c0.4,1.4,1.8,2.3,3.3,2.1l11.5-2.7c0.8-0.2,1.4-0.7,1.8-1.3
				l21-34.9c1-1.7,3.2-2.2,4.9-1.2c0.5,0.3,0.9,0.7,1.2,1.2c0,0,0,0,0,0l21,34.8c0.4,0.7,1.1,1.1,1.8,1.3l39.7,9.2
				c1.9,0.4,3.1,2.3,2.7,4.2c-0.1,0.6-0.5,1.2-0.9,1.7l0,0l-26.5,30.6c-0.5,0.6-0.8,1.4-0.7,2.1l3.5,40.7c0.1,1.3-0.5,2.5-1.5,3.2
				c-1.1,0.7-2.6,0.8-3.8,0.1l-0.1-0.1l-37.1-15.7c-0.7-0.3-1.5-0.3-2.3,0l-37.6,15.9c-1.1,0.5-2.4,0.3-3.4-0.4
				c-1-0.7-1.6-1.9-1.5-3.1l3.5-40.7c0.1-0.8-0.2-1.6-0.7-2.1l-26.7-30.8c-0.8-0.9-1.1-2.2-0.7-3.4c0.4-1.2,1.4-2.1,2.6-2.4l8.8-2
				c1.5-0.4,2.4-2,2-3.6c-0.4-1.4-1.8-2.3-3.3-2.1l-8.7,2c-5,1.2-8.2,6.2-7,11.2c0.3,1.5,1,2.8,2,4l25.9,29.9l-3.4,39.5
				c-0.4,5.1,3.4,9.6,8.6,10c1.5,0.1,3-0.1,4.3-0.7l36.4-15.4l35.9,15.2c1.3,0.6,2.8,1,4.3,1c1.9,0,3.7-0.6,5.2-1.6
				c2.7-1.9,4.3-5.1,4-8.5l-3.4-39.4l25.7-29.6C-49.7-260.5-48.9-264-49.9-267.1z"/>
			<path id="Shape-7" d="M-173-271.6c1.6,0,2.9-1.3,2.9-2.9s-1.3-2.9-2.9-2.9c-0.2,0-0.5,0-0.7,0.1h0c-1.6,0.4-2.5,1.9-2.2,3.5
				C-175.5-272.6-174.3-271.7-173-271.6L-173-271.6z"/>
			<path id="Shape-8" d="M-123.6-269.1c-14.4,0-26.1,11.7-26.1,26.1c0,14.4,11.7,26.1,26.1,26.1c14.4,0,26.1-11.7,26.1-26.1
				C-97.5-257.5-109.2-269.1-123.6-269.1z M-123.6-222.8c-11.2,0-20.3-9.1-20.3-20.3s9.1-20.3,20.3-20.3c11.2,0,20.3,9.1,20.3,20.3
				C-103.3-231.9-112.4-222.8-123.6-222.8z"/>
		</g>
		
			<image style="overflow:visible;enable-background:new    ;" width="79" height="79" id="Bitmap" xlink:href="53002A83.png"  transform="matrix(0.4619 0 0 0.4619 -141.825 -262.713)">
		</image>
	</g>
</g>
<g>
	<g id="star_1_" transform="translate(0 0)">
		<g id="Group_1_" transform="translate(2.898 2.896)">
			<path id="Shape_1_" class="st0" d="M70.7,64l27.4-45.5L125.6,64l51.7,12l-34.8,40.1l4.6,53l-49-20.7l-48.9,20.7l4.5-52.9L19,76
				L70.7,64z M190.5,79.6c3.2-3.4,3.1-8.8-0.3-12.1c-1.1-1.1-2.5-1.8-4-2.1l-52.7-12.3L105.5,6.9c-2.4-4.1-7.6-5.5-11.7-3.1
				c-1.2,0.7-2.3,1.7-3,3l-28,46.4L10.1,65.4c-4.6,1.1-7.5,5.7-6.4,10.3c0.3,1.3,0.9,2.6,1.8,3.6L41,120.3l-4.6,54
				c-0.4,4.7,3.1,8.8,7.8,9.2c1.4,0.1,2.7-0.1,4-0.6l49.9-21.1l49.3,20.8c4.2,2.2,9.3,0.6,11.5-3.6c0.8-1.4,1.1-3.1,1-4.7l-4.7-54
				L190.5,79.6z"/>
			<path id="Shape-2_1_" class="st1" d="M98.1,18.5L70.7,64L19,76l34.8,40.1l-4.5,52.9l48.9-20.7l49,20.7l-4.6-53L177.3,76l-51.7-12
				L98.1,18.5z"/>
			<path id="Shape-3_1_" class="st0" d="M98.2,132.9c17,0,30.8-13.8,30.8-30.8s-13.8-30.8-30.8-30.8c-17,0-30.8,13.8-30.8,30.8
				c0,0,0,0,0,0C67.4,119.1,81.2,132.8,98.2,132.9z"/>
		</g>
		<path id="Shape-4_1_" d="M183.9,77.7c-0.4-1.3-1.5-2.3-2.8-2.6l-50.1-11.6l-26.6-44.1c-1.1-1.8-3.5-2.4-5.3-1.3
			c-0.5,0.3-1,0.8-1.3,1.3L71.2,63.5L21,75.2c-2.1,0.5-3.4,2.6-2.9,4.6c0.1,0.6,0.4,1.2,0.8,1.6l33.7,38.9l-4.4,51.3
			c-0.2,2.1,1.4,4,3.5,4.2c0.6,0.1,1.2,0,1.8-0.3l47.4-20.1l47.5,20.1c2,0.8,4.2-0.1,5-2.1c0.2-0.6,0.3-1.2,0.3-1.8l-1.3-14.6
			c-0.1-2.1-1.9-3.8-4-3.7c-2.1,0.1-3.8,1.9-3.7,4c0,0.1,0,0.3,0,0.4l0.7,8.2l-43.1-18.2c-1-0.4-2-0.4-3,0l-43,18.2l4-46.6
			c0.1-1-0.2-2.1-0.9-2.8L29,81.2l45.5-10.6c1-0.2,1.9-0.9,2.4-1.8L101,28.8l24.1,40.1c0.5,0.9,1.4,1.5,2.4,1.8l45.5,10.6
			l-30.6,35.3c-0.7,0.8-1,1.8-0.9,2.9l1,11.9c0.1,2.1,1.9,3.8,4,3.7c2.1-0.1,3.8-1.9,3.7-4c0-0.1,0-0.3,0-0.4l-0.9-10.3l33.7-38.9
			C184,80.4,184.3,79,183.9,77.7z"/>
		<path id="Shape-5_1_" d="M147,138.1c-2.1,0.2-3.6,2.1-3.4,4.3c0.2,1.9,1.8,3.4,3.8,3.4c0.1,0,0.3,0,0.4,0c2.1-0.2,3.7-2.1,3.5-4.2
			c0,0,0,0,0,0v0C151,139.5,149.2,137.9,147,138.1C147,138.1,147,138.1,147,138.1z"/>
		<path id="Shape-6_1_" d="M199,73c-1.3-4.2-4.8-7.4-9.1-8.4l-51.2-11.9l-27-44.9c-2.2-3.8-6.2-6.1-10.6-6.1H101
			c-4.3,0-8.4,2.3-10.6,6l-27.1,45l-13.7,3.2c-2,0.6-3.2,2.7-2.6,4.8c0.5,1.9,2.4,3.1,4.4,2.7l15.3-3.5c1-0.2,1.9-0.9,2.4-1.8
			l28-46.4c1.4-2.2,4.2-2.9,6.5-1.6c0.7,0.4,1.2,1,1.6,1.6c0,0,0,0,0,0.1L133,58.1c0.5,0.9,1.4,1.5,2.4,1.8l52.7,12.3
			c2.5,0.6,4.1,3.1,3.5,5.6c-0.2,0.8-0.6,1.6-1.2,2.2l-0.1,0.1l-35.2,40.6c-0.7,0.8-1,1.8-0.9,2.9l4.7,54c0.1,1.7-0.6,3.3-2,4.3
			c-1.5,1-3.4,1.1-5,0.2l-0.1-0.1l-49.3-20.8c-1-0.4-2-0.4-3,0l-49.9,21.1c-1.5,0.6-3.2,0.4-4.5-0.5c-1.3-0.9-2.1-2.5-1.9-4.2
			l4.6-54c0.1-1-0.2-2.1-0.9-2.8L11.4,79.7c-1.1-1.2-1.4-2.9-0.9-4.5c0.5-1.6,1.8-2.8,3.4-3.1l11.6-2.7c2-0.6,3.2-2.7,2.6-4.8
			c-0.5-1.9-2.4-3.1-4.4-2.7l-11.6,2.7c-6.7,1.5-10.8,8.2-9.3,14.9c0.5,2,1.4,3.8,2.7,5.3L40,124.5l-4.5,52.4
			c-0.5,6.8,4.5,12.8,11.4,13.3c2,0.2,4-0.2,5.8-0.9l48.4-20.5l47.7,20.2c1.8,0.8,3.7,1.3,5.7,1.3c2.5,0,4.9-0.8,6.9-2.2
			c3.7-2.5,5.7-6.8,5.3-11.3l-4.5-52.4l34.1-39.4C199.3,81.8,200.3,77.2,199,73z"/>
		<path id="Shape-7_1_" d="M35.4,67c2.1,0,3.9-1.7,3.9-3.8c0-2.1-1.7-3.9-3.8-3.9c-0.3,0-0.6,0-0.9,0.1h0c-2.1,0.5-3.4,2.6-2.9,4.6
			C32.1,65.7,33.6,67,35.4,67L35.4,67z"/>
		<path id="Shape-8_1_" d="M101,70.3c-19.1,0-34.6,15.5-34.6,34.6c0,19.1,15.5,34.6,34.6,34.6c19.1,0,34.6-15.5,34.6-34.6
			C135.7,85.8,120.2,70.3,101,70.3z M101,131.9c-14.9,0-26.9-12.1-26.9-26.9c0-14.9,12.1-26.9,26.9-26.9C115.9,78,128,90.1,128,105
			C128,119.8,115.9,131.9,101,131.9z"/>
	</g>
	<g id="XMLID_244_">
		<path id="XMLID_261_" class="st2" d="M116.5,102c0-0.1,0-1.7-1.5-3.1c0.7-1.3,1.7-4.3-0.9-8.1c0,0,0,0,0,0l-1.6-1.5l0.2,2
			c0,0.3,0.1,0.7,0.1,1c-0.7-1.5-2-3.1-4.3-3.8l-1.1-0.4l0.1,1.2c0,0.3,0,0.7,0,1.3l-1.1,0.7c0,0-1.6,0.9-5.1,0.9
			c-0.3,0-0.6,0-0.9,0c-0.5,0-1,0-1.5,0c-3.4,0-5.4,0.5-5.7,0.6c-1.9,0.4-5.2,2.2-5.5,6.3c-1.1,0.8-3.4,3.7-1.3,13.6
			c0,0.2,0.2,0.4,0.3,0.5v1.9l0.7,0c0.2,0,0.3,0.1,0.3,0.1c0,0,0,0.1,0.1,0.1c0,0.1,0.1,0.4,0.1,1.1c0,1.3,0.1,1.7,0.3,2
			c0.2,0.4,0.5,0.7,0.9,1c0.4,0.2,0.9,0.3,1.6,0.4v0H91h1h5.2c1.5,0,2.7-1.2,2.7-2.7v-1.6h1.4v1.6c0,1.5,1.2,2.7,2.7,2.7h5.2h1h0.2
			v0c0.7,0,1.2-0.1,1.6-0.3c0.4-0.2,0.7-0.6,0.9-1c0.1-0.2,0.3-0.7,0.3-2c0-0.7,0-0.9,0.1-1.1c0-0.1,0.1-0.1,0.1-0.1
			c0,0,0.1,0,0.3-0.1l0.7,0v-2l0.1-0.1c0.1-0.3,2.3-5,1.8-8.9l0.4,0.6V102z"/>
		<path id="XMLID_260_" class="st3" d="M113.6,112.7c0,0,3.8-8.1,0.4-11.5c0,0,1.1-0.1,1.7,0.8c0,0,0-1.7-1.7-2.9
			c0,0,2.6-3.3-0.5-7.8c0,0,0.4,3.6-0.8,3.7c0,0-0.1-4.3-4.4-5.7c0,0,0.5,4.4-2.8,4.2c0,0,1.2-0.2,1.3-1.5c0,0-1.9,1.2-6.4,1
			c-4.5-0.2-7,0.6-7,0.6s-4.9,1-5,6.1c0,0-3.8,1.3-1.3,13c0,0.1,0.2,0.2,0.3,0.2c0.1,0,0.3-0.1,0.4-0.2c0.2-0.2,0.4-0.4,0.4-0.7
			c-0.1-1-0.2-3.7,1.4-6.1c0,0,1.7-2.1-0.3-4c0,0,1.5-0.5,2.1,1.6c0,0,1.1-0.9,0.8-2c0,0,1.1,1.4,5.3,1.2c0,0,8.5-0.3,11.7-2
			c0,0-0.6,1.8-3.7,2.3c0,0,7.4,1.1,7.1,9.2C112.8,112.2,112.7,113,113.6,112.7z"/>
		<path id="XMLID_259_" class="st3" d="M109.6,110.6v-1.9h-5.7c-1,0-1.9,0.8-1.9,1.9v2.3h-2.9v-2.3c0-1-0.8-1.9-1.9-1.9h-5.7v1.9
			h5.7v6.6h-5.7v1.9h5.7c1,0,1.9-0.8,1.9-1.9v-2.3h2.9v2.3c0,1,0.8,1.9,1.9,1.9h5.7v-1.9h-5.7v-6.6H109.6z"/>
		<linearGradient id="XMLID_2_" gradientUnits="userSpaceOnUse" x1="111.6428" y1="107.2274" x2="111.6428" y2="119.3311">
			<stop  offset="0" style="stop-color:#29AAE1"/>
			<stop  offset="1" style="stop-color:#282561"/>
		</linearGradient>
		<path id="XMLID_257_" class="st4" d="M113.5,114.5c-0.3,0-0.6,0.1-0.7,0.2c-0.2,0.1-0.3,0.3-0.3,0.6c-0.1,0.3-0.1,0.7-0.1,1.2
			c0,0.8-0.1,1.4-0.2,1.6c-0.1,0.3-0.3,0.5-0.6,0.6c-0.3,0.2-0.8,0.2-1.4,0.2h-0.3v-1.9c0.5,0,0.8,0,0.9,0c0.1,0,0.2-0.1,0.2-0.2
			c0-1,0.1-1.7,0.2-2.2c0.1-0.4,0.4-0.7,0.8-1c-0.4-0.3-0.7-0.6-0.8-1c-0.1-0.4-0.2-1.1-0.2-2.1c0,0,0-0.2-0.2-0.2
			c-0.2,0-0.4,0-0.9,0v-1.9h0.3c0.6,0,1.1,0.1,1.4,0.2c0.3,0.2,0.5,0.4,0.6,0.7c0.1,0.3,0.2,0.8,0.2,1.6c0,0.6,0,1,0.1,1.2
			c0.1,0.2,0.2,0.4,0.3,0.6c0.2,0.1,0.4,0.2,0.7,0.2V114.5z"/>
		<linearGradient id="XMLID_3_" gradientUnits="userSpaceOnUse" x1="89.4022" y1="107.2274" x2="89.4022" y2="119.3311">
			<stop  offset="0" style="stop-color:#29AAE1"/>
			<stop  offset="1" style="stop-color:#282561"/>
		</linearGradient>
		<path id="XMLID_255_" class="st5" d="M87.6,113.2c0.3,0,0.6-0.1,0.7-0.2c0.2-0.1,0.3-0.3,0.3-0.6c0.1-0.2,0.1-0.7,0.1-1.2
			c0-0.7,0.1-1.3,0.2-1.6c0.1-0.3,0.3-0.5,0.6-0.7c0.3-0.2,0.8-0.2,1.4-0.2h0.3v1.9c-0.5,0-0.7,0-0.9,0c-0.2,0-0.2,0.2-0.2,0.2
			c0,1-0.1,1.7-0.2,2.1c-0.1,0.4-0.4,0.8-0.8,1c0.4,0.2,0.7,0.6,0.8,1c0.1,0.4,0.2,1.1,0.2,2.2c0,0.1,0,0.2,0.2,0.2
			c0.2,0,0.5,0,0.9,0v1.9H91c-0.7,0-1.2-0.1-1.4-0.2c-0.3-0.2-0.5-0.4-0.6-0.6c-0.1-0.3-0.2-0.8-0.2-1.6c0-0.6,0-1-0.1-1.2
			c-0.1-0.3-0.2-0.4-0.3-0.6c-0.2-0.1-0.4-0.2-0.7-0.2V113.2z"/>
		<path id="XMLID_254_" class="st6" d="M94.7,113.1c-0.1,0.3-0.3,0.5-0.6,0.5c-0.4,0-0.6-0.3-0.6-0.6c0-0.3,0.2-0.5,0.4-0.6
			c-0.2-0.1-0.3-0.1-0.5-0.1c-0.9,0-1.6,0.7-1.6,1.6c0,0.9,0.7,1.6,1.6,1.6c0.9,0,1.6-0.7,1.6-1.6C94.9,113.6,94.8,113.3,94.7,113.1
			z"/>
		<path id="XMLID_253_" class="st6" d="M109.1,113.1c-0.1,0.3-0.3,0.5-0.6,0.5c-0.4,0-0.6-0.3-0.6-0.6c0-0.3,0.2-0.5,0.4-0.6
			c-0.2-0.1-0.3-0.1-0.5-0.1c-0.9,0-1.6,0.7-1.6,1.6c0,0.9,0.7,1.6,1.6,1.6c0.9,0,1.6-0.7,1.6-1.6
			C109.3,113.6,109.2,113.3,109.1,113.1z"/>
		<path id="XMLID_252_" class="st3" d="M113.6,112.7c0,0,3.8-8.1,0.4-11.5c0,0,1.1-0.1,1.7,0.8c0,0,0-1.7-1.7-2.9
			c0,0,2.6-3.3-0.5-7.8c0,0,0.4,3.6-0.8,3.7c0,0-0.1-4.3-4.4-5.7c0,0,0.5,4.4-2.8,4.2c0,0,1.2-0.2,1.3-1.5c0,0-1.9,1.2-6.4,1
			c-4.5-0.2-7,0.6-7,0.6s-4.9,1-5,6.1c0,0-3.8,1.3-1.3,13c0,0.1,0.2,0.2,0.3,0.2c0.1,0,0.3-0.1,0.4-0.2c0.2-0.2,0.4-0.4,0.4-0.7
			c-0.1-1-0.2-3.7,1.4-6.1c0,0,1.7-2.1-0.3-4c0,0,1.5-0.5,2.1,1.6c0,0,1.1-0.9,0.8-2c0,0,1.1,1.4,5.3,1.2c0,0,8.5-0.3,11.7-2
			c0,0-0.6,1.8-3.7,2.3c0,0,7.4,1.1,7.1,9.2C112.8,112.2,112.7,113,113.6,112.7z"/>
		<path id="XMLID_251_" class="st3" d="M109.6,110.6v-1.9h-5.7c-1,0-1.9,0.8-1.9,1.9v2.3h-2.9v-2.3c0-1-0.8-1.9-1.9-1.9h-5.7v1.9
			h5.7v6.6h-5.7v1.9h5.7c1,0,1.9-0.8,1.9-1.9v-2.3h2.9v2.3c0,1,0.8,1.9,1.9,1.9h5.7v-1.9h-5.7v-6.6H109.6z"/>
		<linearGradient id="XMLID_4_" gradientUnits="userSpaceOnUse" x1="111.6428" y1="107.2274" x2="111.6428" y2="119.3311">
			<stop  offset="0" style="stop-color:#29AAE1"/>
			<stop  offset="1" style="stop-color:#282561"/>
		</linearGradient>
		<path id="XMLID_249_" class="st7" d="M113.5,114.5c-0.3,0-0.6,0.1-0.7,0.2c-0.2,0.1-0.3,0.3-0.3,0.6c-0.1,0.3-0.1,0.7-0.1,1.2
			c0,0.8-0.1,1.4-0.2,1.6c-0.1,0.3-0.3,0.5-0.6,0.6c-0.3,0.2-0.8,0.2-1.4,0.2h-0.3v-1.9c0.5,0,0.8,0,0.9,0c0.1,0,0.2-0.1,0.2-0.2
			c0-1,0.1-1.7,0.2-2.2c0.1-0.4,0.4-0.7,0.8-1c-0.4-0.3-0.7-0.6-0.8-1c-0.1-0.4-0.2-1.1-0.2-2.1c0,0,0-0.2-0.2-0.2
			c-0.2,0-0.4,0-0.9,0v-1.9h0.3c0.6,0,1.1,0.1,1.4,0.2c0.3,0.2,0.5,0.4,0.6,0.7c0.1,0.3,0.2,0.8,0.2,1.6c0,0.6,0,1,0.1,1.2
			c0.1,0.2,0.2,0.4,0.3,0.6c0.2,0.1,0.4,0.2,0.7,0.2V114.5z"/>
		<linearGradient id="XMLID_5_" gradientUnits="userSpaceOnUse" x1="89.4022" y1="107.2274" x2="89.4022" y2="119.3311">
			<stop  offset="0" style="stop-color:#29AAE1"/>
			<stop  offset="1" style="stop-color:#282561"/>
		</linearGradient>
		<path id="XMLID_247_" class="st8" d="M87.6,113.2c0.3,0,0.6-0.1,0.7-0.2c0.2-0.1,0.3-0.3,0.3-0.6c0.1-0.2,0.1-0.7,0.1-1.2
			c0-0.7,0.1-1.3,0.2-1.6c0.1-0.3,0.3-0.5,0.6-0.7c0.3-0.2,0.8-0.2,1.4-0.2h0.3v1.9c-0.5,0-0.7,0-0.9,0c-0.2,0-0.2,0.2-0.2,0.2
			c0,1-0.1,1.7-0.2,2.1c-0.1,0.4-0.4,0.8-0.8,1c0.4,0.2,0.7,0.6,0.8,1c0.1,0.4,0.2,1.1,0.2,2.2c0,0.1,0,0.2,0.2,0.2
			c0.2,0,0.5,0,0.9,0v1.9H91c-0.7,0-1.2-0.1-1.4-0.2c-0.3-0.2-0.5-0.4-0.6-0.6c-0.1-0.3-0.2-0.8-0.2-1.6c0-0.6,0-1-0.1-1.2
			c-0.1-0.3-0.2-0.4-0.3-0.6c-0.2-0.1-0.4-0.2-0.7-0.2V113.2z"/>
		<path id="XMLID_246_" class="st6" d="M94.7,113.1c-0.1,0.3-0.3,0.5-0.6,0.5c-0.4,0-0.6-0.3-0.6-0.6c0-0.3,0.2-0.5,0.4-0.6
			c-0.2-0.1-0.3-0.1-0.5-0.1c-0.9,0-1.6,0.7-1.6,1.6c0,0.9,0.7,1.6,1.6,1.6c0.9,0,1.6-0.7,1.6-1.6C94.9,113.6,94.8,113.3,94.7,113.1
			z"/>
		<path id="XMLID_245_" class="st6" d="M109.1,113.1c-0.1,0.3-0.3,0.5-0.6,0.5c-0.4,0-0.6-0.3-0.6-0.6c0-0.3,0.2-0.5,0.4-0.6
			c-0.2-0.1-0.3-0.1-0.5-0.1c-0.9,0-1.6,0.7-1.6,1.6c0,0.9,0.7,1.6,1.6,1.6c0.9,0,1.6-0.7,1.6-1.6
			C109.3,113.6,109.2,113.3,109.1,113.1z"/>
	</g>
</g>
</svg>
